HIERARCHY
ROOT SpineBase
{
  OFFSET 0.000000 0.000000 0.000000
  CHANNELS 6 Xposition Yposition Zposition Zrotation Xrotation Yrotation
  JOINT SpineMid
  {
    OFFSET 0.000000 27.542799 0.000000
    CHANNELS 3 Zrotation Xrotation Yrotation
    JOINT SpineShoulder
    {
      OFFSET -0.101269 20.453255 -0.597167
      CHANNELS 3 Zrotation Xrotation Yrotation
      JOINT Neck
      {
        OFFSET -0.079365 6.772556 -0.490029
        CHANNELS 3 Zrotation Xrotation Yrotation
        JOINT Head
        {
          OFFSET -2.207173 12.539543 -0.485563
          CHANNELS 3 Zrotation Xrotation Yrotation
          End Site
          {
            OFFSET 0 0 0
          }
        }
      }
      JOINT ShoulderLeft
      {
        OFFSET -12.404993 -4.405625 5.021004
        CHANNELS 3 Zrotation Xrotation Yrotation
        JOINT ElbowLeft
        {
          OFFSET -1.788047 -19.246508 4.343915
          CHANNELS 3 Zrotation Xrotation Yrotation
          JOINT WristLeft
          {
            OFFSET -0.122608 -20.007555 1.066693
            CHANNELS 3 Zrotation Xrotation Yrotation
            JOINT HandLeft
            {
              OFFSET -0.771429 -7.445827 0.132339
              CHANNELS 3 Zrotation Xrotation Yrotation
              JOINT HandTipLeft
              {
                OFFSET 0.754531 -5.019942 -1.162710
                CHANNELS 3 Zrotation Xrotation Yrotation
                End Site
                {
                  OFFSET 0 0 0
                }
              }
              JOINT ThumbLeft
              {
                OFFSET 3.262392 -0.569272 -7.009823
                CHANNELS 3 Zrotation Xrotation Yrotation
                End Site
                {
                  OFFSET 0 0 0
                }
              }
            }
          }
        }
      }
      JOINT ShoulderRight
      {
        OFFSET 10.420328 -3.437867 -10.960544
        CHANNELS 3 Zrotation Xrotation Yrotation
        JOINT ElbowRight
        {
          OFFSET 4.677763 -19.635307 -1.496365
          CHANNELS 3 Zrotation Xrotation Yrotation
          JOINT WristRight
          {
            OFFSET 0.656578 -20.030450 -3.116300
            CHANNELS 3 Zrotation Xrotation Yrotation
            JOINT HandRight
            {
              OFFSET -1.503383 -6.281197 -0.162027
              CHANNELS 3 Zrotation Xrotation Yrotation
              JOINT HandTipRight
              {
                OFFSET 0.720240 -6.068164 -1.796289
                CHANNELS 3 Zrotation Xrotation Yrotation
                End Site
                {
                  OFFSET 0 0 0
                }
              }
              JOINT ThumbRight
              {
                OFFSET -2.371968 -1.186491 -1.226252
                CHANNELS 3 Zrotation Xrotation Yrotation
                End Site
                {
                  OFFSET 0 0 0
                }
              }
            }
          }
        }
      }
    }
  }
  JOINT HipLeft
  {
    OFFSET -5.602789 0.713270 -0.190743
    CHANNELS 3 Zrotation Xrotation Yrotation
    JOINT KneeLeft
    {
      OFFSET 5.273761 -26.430319 7.574476
      CHANNELS 3 Zrotation Xrotation Yrotation
      JOINT AnkleLeft
      {
        OFFSET 8.372253 -37.267927 9.382029
        CHANNELS 3 Zrotation Xrotation Yrotation
        JOINT FootLeft
        {
          OFFSET -3.947615 -4.720672 -6.366617
          CHANNELS 3 Zrotation Xrotation Yrotation
          End Site
          {
            OFFSET 0 0 0
          }
        }
      }
    }
  }
  JOINT HipRight
  {
    OFFSET 5.016199 0.486834 -6.108519
    CHANNELS 3 Zrotation Xrotation Yrotation
    JOINT KneeRight
    {
      OFFSET 7.269421 -24.601535 1.428754
      CHANNELS 3 Zrotation Xrotation Yrotation
      JOINT AnkleRight
      {
        OFFSET 7.617996 -38.206287 12.290783
        CHANNELS 3 Zrotation Xrotation Yrotation
        JOINT FootRight
        {
          OFFSET -2.522666 -7.026646 3.188001
          CHANNELS 3 Zrotation Xrotation Yrotation
          End Site
          {
            OFFSET 0 0 0
          }
        }
      }
    }
  }
}
MOTION
Frames: 6
Frame Time: 0.033333
42.122762 47.372051 387.198094 -0.953733 -29.451337 -45.977975 0.455894 0.062610 45.465441 -0.384359 0.188335 -0.144871 33.640678 31.038099 -14.724669 0.000000 0.000000 0.000000 165.014569 58.953638 -167.135274 -45.171447 -0.051853 -41.222599 -17.615041 3.976805 -18.716691 9.494438 30.320032 78.665337 0.000000 0.000000 0.000000 0.000000 0.000000 0.000000 -38.738241 16.726796 17.758828 11.254566 29.504708 9.783817 28.439425 -13.697286 -0.743843 -50.225717 19.637768 24.058973 0.000000 0.000000 0.000000 0.000000 0.000000 0.000000 -61.165259 -5.420734 44.021954 56.497932 1.314981 18.593710 12.094618 12.758708 -48.524385 0.000000 0.000000 0.000000 -51.314502 35.420445 73.198797 -16.969836 -21.845404 -19.908927 55.200360 46.324627 -16.028785 0.000000 0.000000 0.000000
41.253666 45.032459 384.408285 -7.094970 -22.237278 -54.638599 1.004735 0.310059 52.748196 -0.161138 -0.085505 -0.390371 41.091635 22.903915 -12.652885 0.000000 0.000000 0.000000 165.475264 66.945416 -162.888855 -49.750238 3.770258 -45.222315 -14.178321 8.631917 -10.640395 16.009826 20.663771 72.123339 0.000000 0.000000 0.000000 0.000000 0.000000 0.000000 -5.432753 3.043272 -1.919771 -27.629505 39.886498 27.428941 33.410399 -28.998940 4.488162 -59.935559 34.156300 38.293282 0.000000 0.000000 0.000000 0.000000 0.000000 0.000000 -34.472338 -12.230090 45.150686 46.879917 13.690241 11.415206 26.420621 49.808134 -74.933683 0.000000 0.000000 0.000000 -50.568308 25.620614 79.494988 -11.686819 -26.024807 -20.624241 51.663565 56.707999 -30.521547 0.000000 0.000000 0.000000
38.762350 42.759390 380.486085 -9.705123 -14.224769 -59.134118 1.570149 0.421824 57.352595 -0.044942 -0.600488 -0.507673 38.830046 17.428806 -7.619307 0.000000 0.000000 0.000000 167.557315 72.428200 -164.821092 -45.297631 4.396327 -41.454074 -17.363500 6.958177 -17.554016 12.740810 30.862182 88.797743 0.000000 0.000000 0.000000 0.000000 0.000000 0.000000 7.167059 -8.992645 -6.415491 -45.710890 41.042091 37.096998 30.383973 -24.936205 1.588312 -53.671987 29.063218 33.210103 0.000000 0.000000 0.000000 0.000000 0.000000 0.000000 -9.001934 -18.319153 46.626589 39.333954 27.229097 6.072172 72.075752 69.442193 -126.905618 0.000000 0.000000 0.000000 -47.349085 17.180036 81.235992 -11.573814 -21.399545 -22.989887 56.985116 66.576640 -45.630061 0.000000 0.000000 0.000000
38.124556 41.700164 380.019886 -11.890186 -10.750417 -58.736953 2.566558 0.604146 56.879893 0.148280 -1.015910 -0.611987 39.312247 15.156082 -6.216702 0.000000 0.000000 0.000000 179.758236 70.910797 179.065920 -41.053203 3.119225 -38.906512 -15.236852 6.107648 -18.604453 19.671616 26.967461 85.518594 0.000000 0.000000 0.000000 0.000000 0.000000 0.000000 19.827649 -22.118627 -9.194385 -70.048865 40.279227 53.447314 24.920165 -24.356392 -1.484761 -41.354737 24.726603 27.618171 0.000000 0.000000 0.000000 0.000000 0.000000 0.000000 3.005837 -15.235418 47.007385 32.478140 30.828383 4.614278 80.158794 79.553415 -133.369678 0.000000 0.000000 0.000000 -45.964975 14.836815 80.871247 -6.448871 -25.732641 -21.741586 50.472818 70.237471 -52.359700 0.000000 0.000000 0.000000
39.771312 42.546222 382.418440 -11.059904 -12.879842 -59.866103 1.879390 -0.159763 57.992561 0.203627 -0.541913 -0.593167 38.519730 17.366382 -6.903817 0.000000 0.000000 0.000000 -170.925043 64.182512 163.075446 -36.001591 1.922280 -34.301694 -8.714280 -0.422675 -18.681887 17.613991 14.674329 71.710786 0.000000 0.000000 0.000000 0.000000 0.000000 0.000000 29.934001 -53.847882 -12.844676 -107.375437 32.455736 91.480033 19.987345 -15.542766 -4.449662 -18.229377 4.954811 12.324564 0.000000 0.000000 0.000000 0.000000 0.000000 0.000000 1.954936 -12.460015 49.036850 30.130376 29.778544 4.679520 22.272899 82.150107 -72.633273 0.000000 0.000000 0.000000 -51.239983 13.188440 83.267655 2.614362 -39.556485 -17.203452 49.651219 75.718110 -68.881677 0.000000 0.000000 0.000000
38.064985 43.624868 382.693953 -10.439033 -14.154019 -58.721037 1.033520 0.018225 56.914351 -0.022094 -0.654108 -0.577629 36.764361 18.992093 -6.858132 0.000000 0.000000 0.000000 -174.926577 61.395805 169.233112 -33.869286 9.156762 -32.773952 -6.251569 -4.595910 -22.073411 14.363634 6.602786 66.097092 0.000000 0.000000 0.000000 0.000000 0.000000 0.000000 -141.323712 -22.105669 170.799094 -132.754304 -32.489264 171.610852 16.010171 -1.420514 -6.922546 5.262220 -32.714644 6.087334 0.000000 0.000000 0.000000 0.000000 0.000000 0.000000 1.478505 -12.771730 47.861586 29.829191 30.948027 4.431497 28.789705 78.192412 -79.265475 0.000000 0.000000 0.000000 -54.154775 19.871865 87.038154 38.758153 -66.101620 17.981873 127.206345 82.255841 179.869196 0.000000 0.000000 0.000000
